<?xml version="1.0" encoding="UTF-8"?>
<svg id="Layer_1" data-name="Layer 1" xmlns="http://www.w3.org/2000/svg" viewBox="0 0 644 757.29">
  <defs>
    <style>
      .cls-1 {
        fill: #7ea536;
        stroke-width: 0px;
      }
    </style>
  </defs>
  <path class="cls-1" d="M158.39,81.6C158.39,36.51,194.97,0,240.01,0s81.62,36.52,81.62,81.6-36.56,81.68-81.62,81.68-81.62-36.64-81.62-81.68h0ZM576,223.68v533.61H0v-405.33h32v202.67h194.67v32H32v138.67h277.5l-.17-194.67h-170.67c-58.67,0-85.14-44.31-80.39-87.38l23.63-209.55c4.75-43.06,43.52-74.11,86.56-69.37,24.82,2.74,45.06,16.48,58.43,35.41,8.13,11.52,34.55,45.2,34.55,45.2l91.63-49.28-3.76-7.04c-2.5-4.68-.74-10.5,3.94-13,4.68-2.49,10.5-.74,13,3.94l3.75,7.02c17.03-8.73,37.97-2.29,47.08,14.63,9.13,16.98,2.89,38.09-13.9,47.43l13.31,24.9,212.28-114.81,15.23,28.16-68,36.78h0ZM544,725.29v-314.67h-184v-70.13l-58.77,31.78-15.23-28.16,113.59-61.43-13.31-24.91-117.43,63.15c-5.27,2.84-11,4.21-16.66,4.21-7.85,0-15.58-2.62-21.86-7.59l-15.01,133.08h121.35c29.09,0,52.67,23.58,52.67,52.67v222h154.67-.01Z"/>
</svg>