<?xml version="1.0" encoding="UTF-8"?>
<svg id="Layer_1" data-name="Layer 1" xmlns="http://www.w3.org/2000/svg" viewBox="0 0 786.93 528.44">
  <defs>
    <style>
      .cls-1 {
        fill: #7ea536;
        stroke-width: 0px;
      }
    </style>
  </defs>
  <path class="cls-1" d="M394.54,171.45c47.46,0,85.72-38.27,85.72-85.72S442.3,0,394.54,0s-85.72,38.27-85.72,85.72c.3,47.76,38.57,85.72,85.72,85.72h0ZM195.53,419.75H41.53c-49.9,0-52.66-76.23.92-76.23h133.48l76.54-112.67c22.66-30.92,48.37-45.62,84.81-45.62h114.2c36.43,0,62.15,13.47,84.81,45.62l76.85,112.67h134.41c53.88,0,50.52,76.23,1.84,76.23h-154c-12.25,0-26.94-4.29-35.52-17.45l-58.78-83.89-.31,210.03h-210.64l-.31-210.03-58.78,83.89c-8.57,12.86-23.27,17.45-35.51,17.45h0Z"/>
  <path class="cls-1" d="M115.62,171.53c0-8.22,6.72-14.94,14.94-14.94s14.94,6.72,14.94,14.94-6.59,14.94-14.94,14.94-14.94-6.72-14.94-14.94ZM167.04,134.53v146.88l-167.04-.07v-146.81h167.04ZM157.05,144.71H10.24v107.92l44.89-85.41,30.6,62.64,30.41-20.03,40.91,38.82v-103.94h0Z"/>
  <path class="cls-1" d="M767.18,177.72v19.62c0,30.03-22.69,54.59-51.86,58.17v23.37l17.91,15.18h8.02v9.21h-73.53v-9.21h8.19l17.4-14.67v-24.05c-29-3.75-51.52-28.32-51.52-58.17v-19.45h11.09v19.45c0,26.27,21.33,47.77,47.77,47.77h7.68c26.27,0,47.77-21.32,47.77-47.77v-19.45h11.09-.01ZM720.09,194.27v-11.26h23.37v-14.67h-23.37v-11.09h23.37v-14.67h-23.37v-11.26h23.2c-.68-18.94-16.21-34.29-35.31-34.29h-7.17c-19.11,0-34.63,15.35-35.14,34.29h22.35v11.26h-22.52v14.67h22.52v11.26h-22.52v14.67h22.52v11.26h-22.52v1.03c0,19.28,15.87,35.14,35.31,35.14h7.17c19.45,0,35.31-15.87,35.31-35.31v-1.03h-23.2,0Z"/>
</svg>