<?xml version="1.0" encoding="UTF-8"?>
<svg id="Layer_1" data-name="Layer 1" xmlns="http://www.w3.org/2000/svg" viewBox="0 0 787.5 515.93">
  <defs>
    <style>
      .cls-1 {
        fill: #7ea536;
        stroke-width: 0px;
      }
    </style>
  </defs>
  <circle class="cls-1" cx="595.31" cy="164.69" r="52.5"/>
  <circle class="cls-1" cx="530.63" cy="295.31" r="52.5"/>
  <path class="cls-1" d="M446.88,357.5h-118.13c-35.94,0-58.44,29.69-58.44,66.87v91.56h40.31v-80.94c0-3.75,3.12-6.25,6.25-6.25,3.75,0,6.25,2.5,6.25,6.25v80.63h129.69v-80.63c0-3.75,3.12-6.25,6.25-6.25,3.75,0,6.25,3.12,6.25,6.25v80.63h40.31v-90.94c.62-37.5-22.19-67.19-58.75-67.19h.01Z"/>
  <circle class="cls-1" cx="461.56" cy="164.69" r="52.5"/>
  <path class="cls-1" d="M615.94,295.31c0,29.06,23.44,52.5,52.5,52.5s52.5-23.44,52.5-52.5-23.44-52.5-52.5-52.5-52.5,23.44-52.5,52.5Z"/>
  <path class="cls-1" d="M610.62,357.5c-35.94,0-58.44,29.69-58.44,66.87v91.56h40.31v-80.94c0-3.75,3.12-6.25,6.25-6.25,3.75,0,6.25,2.5,6.25,6.25v80.63h129.69v-80.63c0-3.75,3.12-6.25,6.25-6.25,3.75,0,6.25,3.12,6.25,6.25v80.63h40.31v-90.94c.62-37.81-22.19-67.5-58.44-67.5h-118.44v.31h.01Z"/>
  <circle class="cls-1" cx="118.12" cy="295.31" r="52.5"/>
  <path class="cls-1" d="M40,515.63v-80.63c0-3.75,3.12-6.25,6.25-6.25,3.75,0,6.25,2.5,6.25,6.25v80.63h129.69v-80.63c0-3.75,3.12-6.25,6.25-6.25,3.75,0,6.25,3.12,6.25,6.25v80.63h40.31v-90.94c.62-37.81-22.19-67.5-58.44-67.5H58.44c-35.94,0-58.44,29.69-58.44,66.87v91.56h40Z"/>
  <path class="cls-1" d="M335.31,295.31c0,29.06,23.44,52.5,52.5,52.5s52.5-23.44,52.5-52.5-23.44-52.5-52.5-52.5-52.5,23.44-52.5,52.5Z"/>
  <circle class="cls-1" cx="185.33" cy="164.71" r="52.5"/>
  <circle class="cls-1" cx="327.19" cy="164.69" r="52.5"/>
  <circle class="cls-1" cx="527.19" cy="52.5" r="52.5"/>
  <circle class="cls-1" cx="250.94" cy="52.5" r="52.5"/>
  <circle class="cls-1" cx="392.5" cy="52.5" r="52.5"/>
  <circle class="cls-1" cx="256.56" cy="295.31" r="52.5"/>
</svg>